<?xml version="1.0" encoding="UTF-8" standalone="no"?>
<!-- Created with Inkscape (http://www.inkscape.org/) -->

<svg
   width="20.207767"
   height="20.189032"
   viewBox="0 0 5.3466384 5.3416813"
   version="1.1"
   id="svg11507"
   inkscape:version="1.2.1 (9c6d41e410, 2022-07-14)"
   sodipodi:docname="search.svg"
   xmlns:inkscape="http://www.inkscape.org/namespaces/inkscape"
   xmlns:sodipodi="http://sodipodi.sourceforge.net/DTD/sodipodi-0.dtd"
   xmlns="http://www.w3.org/2000/svg"
   xmlns:svg="http://www.w3.org/2000/svg">
  <sodipodi:namedview
     id="namedview11509"
     pagecolor="#ffffff"
     bordercolor="#0000ff"
     borderopacity="1"
     inkscape:showpageshadow="false"
     inkscape:pageopacity="0.0"
     inkscape:pagecheckerboard="true"
     inkscape:deskcolor="#d1d1d1"
     inkscape:document-units="px"
     showgrid="false"
     inkscape:zoom="9.5144352"
     inkscape:cx="24.121243"
     inkscape:cy="29.428967"
     inkscape:window-width="1920"
     inkscape:window-height="1009"
     inkscape:window-x="1432"
     inkscape:window-y="-8"
     inkscape:window-maximized="1"
     inkscape:current-layer="layer1" />
  <defs
     id="defs11504" />
  <g
     inkscape:label="Capa 1"
     inkscape:groupmode="layer"
     id="layer1"
     transform="translate(-11.768051,-55.818926)">
    <path
       style="fill:#000000;stroke-width:0.0222277"
       d="m 16.966078,61.010336 0.148612,-0.15032 -0.948375,-0.948382 c -0.766278,-0.766272 -0.954325,-0.943457 -0.9793,-0.922727 -0.02457,0.02035 -0.04762,0.0085 -0.11168,-0.05713 l -0.08075,-0.08279 0.117636,-0.171091 c 0.144293,-0.20984 0.246199,-0.461392 0.291013,-0.718396 0.04279,-0.245333 0.04267,-0.376909 -4.25e-4,-0.624623 -0.159801,-0.916394 -0.990942,-1.57052 -1.921609,-1.512358 -0.793342,0.04958 -1.473856,0.612707 -1.667196,1.379625 -0.06127,0.242995 -0.06127,0.650111 0,0.893106 0.159394,0.632269 0.662125,1.142634 1.304922,1.324739 0.251904,0.07136 0.700558,0.07114 0.951309,-5.23e-4 0.21673,-0.0619 0.461963,-0.177255 0.598687,-0.281619 0.05606,-0.04276 0.109824,-0.07775 0.11954,-0.07775 0.0097,0 0.04995,0.03332 0.08945,0.07406 0.05129,0.05292 0.06731,0.08572 0.05612,0.114942 -0.01257,0.03288 0.170205,0.223978 0.933921,0.976196 l 0.949615,0.935312 z m -3.738156,-1.927339 c -0.263128,-0.0673 -0.463756,-0.18368 -0.671072,-0.389277 -0.200814,-0.199145 -0.288784,-0.339025 -0.377667,-0.600474 -0.05082,-0.149447 -0.06067,-0.216833 -0.06174,-0.422324 -0.0023,-0.44137 0.121384,-0.745672 0.430107,-1.058046 0.321803,-0.325612 0.670443,-0.459981 1.131445,-0.436076 0.558128,0.02894 1.016249,0.337721 1.261353,0.850159 0.340356,0.711573 0.03574,1.583857 -0.678448,1.943106 -0.310789,0.156325 -0.698666,0.198689 -1.033981,0.112932 z"
       id="path8627" />
  </g>
</svg>
