<?xml version="1.0" encoding="UTF-8" standalone="no"?>
<!-- Created with Inkscape (http://www.inkscape.org/) -->

<svg
   width="30.450369"
   height="34.569164"
   viewBox="0 0 8.0566599 9.1464246"
   version="1.1"
   id="svg5798"
   xml:space="preserve"
   inkscape:version="1.2.1 (9c6d41e410, 2022-07-14)"
   sodipodi:docname="html.svg"
   xmlns:inkscape="http://www.inkscape.org/namespaces/inkscape"
   xmlns:sodipodi="http://sodipodi.sourceforge.net/DTD/sodipodi-0.dtd"
   xmlns="http://www.w3.org/2000/svg"
   xmlns:svg="http://www.w3.org/2000/svg"><sodipodi:namedview
     id="namedview5800"
     pagecolor="#ffffff"
     bordercolor="#666666"
     borderopacity="1.0"
     inkscape:showpageshadow="false"
     inkscape:pageopacity="0.0"
     inkscape:pagecheckerboard="true"
     inkscape:deskcolor="#d1d1d1"
     inkscape:document-units="px"
     showgrid="false"
     inkscape:zoom="6.7277216"
     inkscape:cx="51.50332"
     inkscape:cy="4.1618844"
     inkscape:window-width="1920"
     inkscape:window-height="1009"
     inkscape:window-x="1432"
     inkscape:window-y="-8"
     inkscape:window-maximized="1"
     inkscape:current-layer="layer1" /><defs
     id="defs5795" /><g
     inkscape:label="Capa 1"
     inkscape:groupmode="layer"
     id="layer1"
     transform="translate(176.35519,-31.139176)"><path
       style="fill:#fd5622;stroke-width:0.0179738"
       d="m -172.81199,40.188981 c -0.31183,-0.08886 -0.9091,-0.256402 -1.63562,-0.458799 -0.173,-0.0482 -0.50363,-0.140301 -0.73476,-0.204682 -0.23112,-0.06439 -0.42378,-0.120614 -0.42813,-0.124963 -0.007,-0.0076 -0.0361,-0.310682 -0.13955,-1.485242 -0.0836,-0.948579 -0.0988,-1.120446 -0.11718,-1.321073 -0.0172,-0.187365 -0.0565,-0.634428 -0.18006,-2.044518 -0.0296,-0.338581 -0.062,-0.700528 -0.0718,-0.804327 -0.0102,-0.103798 -0.0422,-0.467767 -0.0719,-0.808821 -0.0296,-0.341052 -0.0618,-0.705022 -0.0715,-0.80882 -0.009,-0.103799 -0.0299,-0.334312 -0.045,-0.512253 -0.0151,-0.17794 -0.032,-0.357902 -0.0375,-0.399917 l -0.0102,-0.07639 h 4.02833 4.02833 l -0.0102,0.07639 c -0.005,0.04201 -0.0305,0.310947 -0.0553,0.597629 -0.0248,0.286682 -0.061,0.69918 -0.0803,0.916663 -0.0193,0.217483 -0.0597,0.674466 -0.0896,1.015519 -0.03,0.341052 -0.0625,0.705021 -0.0724,0.80882 -0.0102,0.103798 -0.0423,0.467768 -0.0721,0.80882 -0.0954,1.090582 -0.16146,1.837032 -0.17966,2.031038 -0.0102,0.103799 -0.042,0.467768 -0.0716,0.808821 -0.0592,0.679463 -0.085,0.966235 -0.10026,1.108947 l -0.0102,0.09343 -0.0932,0.02627 c -0.0513,0.01444 -0.48951,0.136748 -0.9739,0.271784 -0.48439,0.135037 -1.1536,0.321799 -1.48713,0.415028 -0.75143,0.210042 -0.73263,0.208952 -1.21793,0.07065 z m 1.43341,-1.886098 c 0.51158,-0.142708 0.9687,-0.26907 1.01582,-0.280804 0.0471,-0.01173 0.0896,-0.02779 0.0945,-0.03569 0.0108,-0.0176 0.0326,-0.248527 0.17091,-1.813865 0.0598,-0.676782 0.10634,-1.245187 0.10345,-1.263123 -0.005,-0.03125 -0.0809,-0.03258 -1.82393,-0.03198 -1.27355,4.49e-4 -1.82225,-0.0051 -1.83057,-0.01861 -0.009,-0.01524 -0.0973,-0.91177 -0.0981,-1.001023 -1.4e-4,-0.0177 0.40335,-0.02334 1.92747,-0.02696 l 1.9277,-0.0046 0.0391,-0.422383 c 0.0216,-0.232312 0.0397,-0.460803 0.0405,-0.50776 l 0.001,-0.08538 h -2.51633 -2.51632 v 0.06132 c 0,0.03373 0.0486,0.610007 0.10817,1.280632 0.0595,0.670626 0.11813,1.332555 0.13031,1.470953 l 0.0222,0.251633 1.74796,0.0046 1.74795,0.0046 -0.001,0.04035 c -7.9e-4,0.0222 -0.027,0.319089 -0.0585,0.659767 l -0.057,0.619418 -0.54819,0.148833 c -0.30152,0.08186 -0.56439,0.148397 -0.58415,0.147863 -0.0198,-5.54e-4 -0.2786,-0.06744 -0.57517,-0.148685 l -0.53921,-0.147715 -0.0391,-0.421853 c -0.0215,-0.232019 -0.0397,-0.423875 -0.0405,-0.426346 -8e-4,-0.0025 -0.22783,-0.0045 -0.50462,-0.0045 -0.3355,0 -0.50327,0.0062 -0.50327,0.01864 0,0.01025 0.0204,0.246833 0.0454,0.525735 0.0249,0.278901 0.0567,0.635526 0.0706,0.792499 0.0139,0.156974 0.0319,0.291436 0.0401,0.298804 0.008,0.0074 0.26953,0.08414 0.58093,0.17059 0.3114,0.08646 0.76029,0.212053 0.99754,0.279104 0.23726,0.06705 0.44553,0.122699 0.46284,0.123659 0.0173,9.52e-4 0.45002,-0.115014 0.96159,-0.257722 z"
       id="path6424" /></g></svg>
