<?xml version="1.0" encoding="UTF-8" standalone="no"?>
<!-- Created with Inkscape (http://www.inkscape.org/) -->

<svg
   width="30.113813"
   height="30.227673"
   viewBox="0 0 7.9676129 7.9977383"
   version="1.1"
   id="svg12253"
   xml:space="preserve"
   inkscape:version="1.2.1 (9c6d41e410, 2022-07-14)"
   sodipodi:docname="javascript.svg"
   xmlns:inkscape="http://www.inkscape.org/namespaces/inkscape"
   xmlns:sodipodi="http://sodipodi.sourceforge.net/DTD/sodipodi-0.dtd"
   xmlns="http://www.w3.org/2000/svg"
   xmlns:svg="http://www.w3.org/2000/svg"><sodipodi:namedview
     id="namedview12255"
     pagecolor="#ffffff"
     bordercolor="#666666"
     borderopacity="1"
     inkscape:showpageshadow="false"
     inkscape:pageopacity="0.0"
     inkscape:pagecheckerboard="true"
     inkscape:deskcolor="#d1d1d1"
     inkscape:document-units="px"
     showgrid="false"
     inkscape:zoom="19.02887"
     inkscape:cx="27.510829"
     inkscape:cy="19.969656"
     inkscape:window-width="1920"
     inkscape:window-height="1009"
     inkscape:window-x="1432"
     inkscape:window-y="-8"
     inkscape:window-maximized="1"
     inkscape:current-layer="text20493" /><defs
     id="defs12250" /><g
     inkscape:label="Capa 1"
     inkscape:groupmode="layer"
     id="layer1"
     transform="translate(256.35001,42.041065)"><rect
       style="fill:#ffe680;fill-opacity:1;stroke:none;stroke-width:0.533566;stroke-linecap:round;stroke-dasharray:none;stroke-opacity:1;paint-order:stroke fill markers"
       id="rect20437"
       width="7.9676132"
       height="7.9977384"
       x="-256.35001"
       y="-42.041065" /><g
       aria-label="JS"
       transform="matrix(1.0444867,0,0,1.0458628,-6.4715317,4.2168859)"
       id="text20493"
       style="font-size:5.10476px;line-height:1.25;fill:#4d4d4d;stroke-width:0.121281"><path
         d="m -235.24476,-38.892735 q 0,0.717857 -0.334,1.099218 -0.33151,0.381362 -0.96213,0.381362 -0.28166,0 -0.52094,-0.09721 v -0.755245 q 0.20688,0.157031 0.46361,0.157031 0.55086,0 0.55086,-0.81756 v -2.12366 h 0.8026 z"
         style="font-weight:bold;font-family:'Leelawadee UI';-inkscape-font-specification:'Leelawadee UI Bold'"
         id="path13294" /><path
         d="m -234.74641,-37.61156 v -0.797619 q 0.21685,0.181957 0.47109,0.274182 0.25424,0.08973 0.51347,0.08973 0.15204,0 0.26421,-0.02742 0.11466,-0.02742 0.18943,-0.07478 0.0773,-0.04985 0.11466,-0.114658 0.0374,-0.0673 0.0374,-0.144568 0,-0.104688 -0.0598,-0.186942 -0.0598,-0.08226 -0.16451,-0.152046 -0.1022,-0.06979 -0.24427,-0.134598 -0.14208,-0.06481 -0.30659,-0.132106 -0.41875,-0.174479 -0.62563,-0.426228 -0.20439,-0.251748 -0.20439,-0.608184 0,-0.279166 0.11217,-0.478571 0.11216,-0.201897 0.30409,-0.33151 0.19442,-0.129614 0.44866,-0.189435 0.25424,-0.06231 0.53839,-0.06231 0.27917,0 0.49353,0.0349 0.21685,0.0324 0.39881,0.102195 v 0.745275 q -0.0897,-0.06231 -0.19691,-0.109673 -0.10469,-0.04736 -0.21686,-0.07727 -0.11216,-0.0324 -0.22433,-0.04736 -0.10967,-0.01496 -0.20937,-0.01496 -0.13709,0 -0.24926,0.02742 -0.11216,0.02493 -0.18943,0.07228 -0.0773,0.04736 -0.11965,0.114658 -0.0424,0.06481 -0.0424,0.147061 0,0.08973 0.0474,0.162016 0.0474,0.06979 0.1346,0.134598 0.0872,0.06231 0.21187,0.124628 0.12462,0.05982 0.28165,0.124628 0.21436,0.08973 0.38386,0.191927 0.17199,0.0997 0.29412,0.226823 0.12214,0.127121 0.18694,0.29163 0.0648,0.162016 0.0648,0.378868 0,0.299108 -0.11466,0.503497 -0.11216,0.201898 -0.30658,0.329018 -0.19442,0.124628 -0.45365,0.179464 -0.25673,0.05484 -0.54338,0.05484 -0.29412,0 -0.56082,-0.04985 -0.26421,-0.04985 -0.45863,-0.149553 z"
         style="font-weight:bold;font-family:'Leelawadee UI';-inkscape-font-specification:'Leelawadee UI Bold'"
         id="path13291" /></g></g></svg>
