<?xml version="1.0" encoding="UTF-8" standalone="no"?>
<!-- Generator: Adobe Illustrator 18.1.1, SVG Export Plug-In . SVG Version: 6.00 Build 0)  -->

<svg
   version="1.1"
   id="Capa_1"
   x="0px"
   y="0px"
   viewBox="0 0 30.094135 27.216824"
   enable-background="new 0 0 1400 980"
   xml:space="preserve"
   sodipodi:docname="selfcare.svg"
   inkscape:version="1.2.1 (9c6d41e410, 2022-07-14)"
   width="30.094135"
   height="27.216824"
   xmlns:inkscape="http://www.inkscape.org/namespaces/inkscape"
   xmlns:sodipodi="http://sodipodi.sourceforge.net/DTD/sodipodi-0.dtd"
   xmlns:xlink="http://www.w3.org/1999/xlink"
   xmlns="http://www.w3.org/2000/svg"
   xmlns:svg="http://www.w3.org/2000/svg"><defs
   id="defs1098"><inkscape:path-effect
     effect="powerclip"
     id="path-effect1328"
     is_visible="true"
     lpeversion="1"
     inverse="true"
     flatten="false"
     hide_clip="false"
     message="Utilice la regla de relleno parimpar en el diálogo &lt;b&gt;Relleno y borde&lt;/b&gt; si el resultado no está aplanada después de convertir el recorte en trayectos." /><clipPath
     clipPathUnits="userSpaceOnUse"
     id="clipPath1324"><path
       fill="#f8ecd4"
       d="m 727.7,775.1 c -0.9,0 -1.9,-0.2 -2.7,-0.7 C 381.1,592.8 368.9,414.8 368.6,407.3 l -0.1,-1.5 c -0.6,-5.9 -0.8,-11.9 -0.8,-17.7 0,-100.6 81.8,-182.5 182.4,-182.5 58.8,0 114.4,28.7 148.6,76.7 l 26.7,37.5 26.7,-37.4 c 34.2,-48 89.8,-76.7 148.6,-76.7 100.6,0 182.4,81.9 182.4,182.5 0,5.8 -0.3,11.6 -0.8,17.4 l -0.1,2.2 c -0.2,7.5 -9.2,185.8 -351.7,366.7 -0.9,0.4 -1.8,0.6 -2.8,0.6 z M 550.1,217.2 c -94.2,0 -170.8,76.7 -170.8,170.9 0,5.5 0.3,11 0.8,16.6 l 0.1,2.1 c 0.3,7.2 12.1,177.9 347.6,356 334,-177.3 342.7,-348.2 342.9,-355.4 l 0.2,-3 c 0.5,-5.4 0.8,-10.9 0.8,-16.3 0,-94.2 -76.6,-170.9 -170.9,-170.9 -55.1,0 -107.1,26.8 -139.2,71.8 l -31.4,44.1 c -1.1,1.5 -2.8,2.4 -4.7,2.4 v 0 c -1.9,0 -3.6,-0.9 -4.7,-2.4 L 689.2,289 c -32,-44.9 -84.1,-71.8 -139.1,-71.8 z"
       id="path1326"
       style="display:none" /><path
       id="lpe_path-effect1328"
       class="powerclip"
       d="M 233.00761,3125.9483 H 1281.5153 v 949.2156 H 233.00761 Z M 727.7,775.1 c 1,0 1.9,-0.2 2.8,-0.6 C 1073,593.6 1082,415.3 1082.2,407.8 l 0.1,-2.2 c 0.5,-5.8 0.8,-11.6 0.8,-17.4 0,-100.6 -81.8,-182.5 -182.4,-182.5 -58.8,0 -114.4,28.7 -148.6,76.7 l -26.7,37.4 -26.7,-37.5 c -34.2,-48 -89.8,-76.7 -148.6,-76.7 -100.6,0 -182.4,81.9 -182.4,182.5 0,5.8 0.2,11.8 0.8,17.7 l 0.1,1.5 c 0.3,7.5 12.5,185.5 356.4,367.1 0.8,0.5 1.8,0.7 2.7,0.7 z M 550.1,217.2 c -94.2,0 -170.8,76.7 -170.8,170.9 0,5.5 0.3,11 0.8,16.6 l 0.1,2.1 c 0.3,7.2 12.1,177.9 347.6,356 334,-177.3 342.7,-348.2 342.9,-355.4 l 0.2,-3 c 0.5,-5.4 0.8,-10.9 0.8,-16.3 0,-94.2 -76.6,-170.9 -170.9,-170.9 -55.1,0 -107.1,26.8 -139.2,71.8 l -31.4,44.1 c -1.1,1.5 -2.8,2.4 -4.7,2.4 v 0 c -1.9,0 -3.6,-0.9 -4.7,-2.4 L 689.2,289 c -32,-44.9 -84.1,-71.8 -139.1,-71.8 z" /></clipPath><clipPath
     clipPathUnits="userSpaceOnUse"
     id="clipPath598"><path
       style="fill:#ffffff;stroke-linecap:round;stroke-opacity:0.858824;paint-order:stroke fill markers"
       id="path600"
       sodipodi:type="rect"
       width="2830.1472"
       height="2310.6899"
       x="2785.0557"
       y="2340.2913"
       ry="79.485939"
       d="m 2864.5416,2340.2913 h 2671.1753 c 44.0353,0 79.486,35.4507 79.486,79.4859 v 2151.7181 c 0,44.0352 -35.4507,79.4859 -79.486,79.4859 H 2864.5416 c -44.0352,0 -79.4859,-35.4507 -79.4859,-79.4859 V 2419.7772 c 0,-44.0352 35.4507,-79.4859 79.4859,-79.4859 z" /></clipPath></defs><sodipodi:namedview
   id="namedview1096"
   pagecolor="#ffffff"
   bordercolor="#666666"
   borderopacity="1.0"
   inkscape:showpageshadow="2"
   inkscape:pageopacity="0"
   inkscape:pagecheckerboard="true"
   inkscape:deskcolor="#d1d1d1"
   showgrid="false"
   inkscape:zoom="7.7061224"
   inkscape:cx="62.028602"
   inkscape:cy="23.747352"
   inkscape:window-width="1920"
   inkscape:window-height="1009"
   inkscape:window-x="1432"
   inkscape:window-y="-8"
   inkscape:window-maximized="1"
   inkscape:current-layer="g1085" />


































<g
   id="g1322"
   clip-path="url(#clipPath1324)"
   inkscape:path-effect="#path-effect1328"
   transform="matrix(0.02897825,0,0,0.02897825,-6.897044,-90.729404)"
   style="fill:#8080ff"><g
     id="g1087"
     style="fill:#8080ff"
     transform="translate(-2942.9607,-405.80497)"
     clip-path="url(#clipPath598)">
	
	<g
   id="g1085"
   style="fill:#8080ff">
		<defs
   id="defs1016">
			<path
   id="SVGID_1_"
   d="m 1242.8,601.1 -49.2,-62.4 c -2.9,-3.7 -2.9,-8.9 0,-12.6 l 49.2,-62.4 c 5.3,-6.7 0.5,-16.5 -8,-16.5 H 215.9 c -8.5,0 -13.3,9.8 -8,16.5 l 49.2,62.4 c 2.9,3.7 2.9,8.9 0,12.6 l -49.2,62.4 c -5.3,6.7 -0.5,16.5 8,16.5 h 1018.9 c 8.6,0 13.3,-9.8 8,-16.5 z" />
		</defs>
		
		<clipPath
   id="SVGID_2_">
			<use
   xlink:href="#SVGID_1_"
   overflow="visible"
   id="use1020" />
		</clipPath>
		
	<path
   style="fill:#ff5555;stroke:none;stroke-width:2.812"
   d="m 3704.2581,3662.6767 c -29.8916,-14.2288 -52.8656,-50.2786 -81.548,-69.2878 -78.5674,-52.1345 -189.2478,-76.0646 -278.3883,-37.9339 -28.6543,12.2603 -58.2084,27.8107 -81.548,48.6477 -91.587,81.773 -92.8805,214.5557 -68.0786,325.7142 7.6205,34.0814 18.1936,69.8782 33.6596,101.232 4.7805,9.7015 9.9264,24.5769 19.2623,30.8477 12.2603,8.2392 40.2116,2.8964 54.5247,2.8964 21.0338,0 62.567,7.958 80.9575,-2.8964 24.8582,-14.6786 36.9216,-78.2299 47.9728,-103.9597 6.552,-15.2692 23.3115,-73.337 42.7143,-73.8151 17.8281,-0.4499 22.8897,30.3134 27.0796,42.8831 16.8158,50.4754 36.6404,100.3603 50.0818,151.8481 2.812,10.8262 14.7911,63.2982 33.6315,46.0887 14.0319,-12.8227 16.394,-53.3155 20.8932,-71.3967 15.9159,-63.6638 30.7633,-127.5805 47.1292,-191.2162 4.6116,-17.9124 11.1354,-79.889 32.0849,-84.4444 22.1023,-4.8085 27.9794,50.5317 32.0287,64.7604 14.6505,51.3753 27.2202,103.313 41.7863,154.6602 5.1741,18.1936 7.3394,45.7794 19.1217,60.9641 8.3235,10.77 29.9197,6.5239 41.9269,6.5239 h 115.2921 154.6601 c 16.4502,0 46.7917,5.7927 61.2454,-2.8964 13.6382,-8.211 20.5839,-36.4716 26.5735,-50.5316 23.0584,-54.4404 37.2309,-112.4239 41.2802,-171.5322 6.2145,-90.6027 -20.1902,-189.8382 -95.355,-246.7813 -97.0422,-73.5058 -222.6263,-67.8255 -326.1923,-12.3728 -32.4224,17.35 -76.9645,48.0571 -92.7961,81.998 m 351.5003,19.684 v 42.18 h 42.1801 v 36.556 h -42.1801 v 42.1801 h -33.744 v -42.1801 h -44.9921 c 0,-37.3434 10.067,-36.556 44.9921,-36.556 v -42.18 h 33.744"
   id="path602"
   inkscape:original-d="m 3704.2581,3662.6767 c -29.8916,-14.2288 -52.8656,-50.2786 -81.548,-69.2878 -78.5674,-52.1345 -189.2478,-76.0646 -278.3883,-37.9339 -28.6543,12.2603 -58.2084,27.8107 -81.548,48.6477 -91.587,81.773 -92.8805,214.5557 -68.0786,325.7142 7.6205,34.0814 18.1936,69.8782 33.6596,101.232 4.7805,9.7015 9.9264,24.5769 19.2623,30.8477 12.2603,8.2392 40.2116,2.8964 54.5247,2.8964 21.0338,0 62.567,7.958 80.9575,-2.8964 24.8582,-14.6786 36.9216,-78.2299 47.9728,-103.9597 6.552,-15.2692 23.3115,-73.337 42.7143,-73.8151 17.8281,-0.4499 22.8897,30.3134 27.0796,42.8831 16.8158,50.4754 36.6404,100.3603 50.0818,151.8481 2.812,10.8262 14.7911,63.2982 33.6315,46.0887 14.0319,-12.8227 16.394,-53.3155 20.8932,-71.3967 15.9159,-63.6638 30.7633,-127.5805 47.1292,-191.2162 4.6116,-17.9124 11.1354,-79.889 32.0849,-84.4444 22.1023,-4.8085 27.9794,50.5317 32.0287,64.7604 14.6505,51.3753 27.2202,103.313 41.7863,154.6602 5.1741,18.1936 7.3394,45.7794 19.1217,60.9641 8.3235,10.77 29.9197,6.5239 41.9269,6.5239 h 115.2921 154.6601 c 16.4502,0 46.7917,5.7927 61.2454,-2.8964 13.6382,-8.211 20.5839,-36.4716 26.5735,-50.5316 23.0584,-54.4404 37.2309,-112.4239 41.2802,-171.5322 6.2145,-90.6027 -20.1902,-189.8382 -95.355,-246.7813 -97.0422,-73.5058 -222.6263,-67.8255 -326.1923,-12.3728 -32.4224,17.35 -76.9645,48.0571 -92.7961,81.998 m 351.5003,19.684 v 42.18 h 42.1801 v 36.556 h -42.1801 v 42.1801 h -33.744 v -42.1801 h -44.9921 c 0,-37.3434 10.067,-36.556 44.9921,-36.556 v -42.18 h 33.744"
   sodipodi:nodetypes="cccccccsccccccccccccscscccccccccccccccccc" /><path
   style="fill:#ff5555;stroke:none;stroke-width:2.812"
   d="m 3274.5798,4147.5548 c 11.8385,37.1747 48.985,71.4811 75.924,98.4201 69.9908,70.0189 149.5704,129.4646 236.2082,177.5498 29.4698,16.3659 81.1825,52.5564 115.2921,52.4439 37.6246,-0.1125 92.2618,-38.3276 123.7281,-57.1962 82.476,-49.4631 156.2911,-101.682 225.0727,-169.0294 29.3854,-28.7387 66.5319,-62.8483 81.4356,-102.1882 h -264.3282 c -26.461,0 -80.4514,10.3201 -103.4536,-3.3181 -13.132,-7.7893 -14.9598,-28.345 -18.6436,-41.6739 -67.1228,-330.3804 -94.3066,-37.2815 -132.0235,109.6681 -4.3867,17.0126 -6.6363,56.2962 -24.4363,64.7604 -22.1586,10.545 -32.3943,-40.071 -35.7406,-53.5124 -13.4413,-54.356 -36.3591,-107.1654 -54.0748,-160.2841 -12.7833,-41.5167 -21.8787,-65.7205 -47.0166,-19.6841 -11.7261,26.6859 -22.2711,78.3986 -44.036,97.7734 -10.0389,8.9421 -25.8704,6.2707 -38.2995,6.2707 z"
   id="path602-6"
   inkscape:original-d="m 3274.5798,4147.5548 c 11.8385,37.1747 48.985,71.4811 75.924,98.4201 69.9908,70.0189 149.5704,129.4646 236.2082,177.5498 29.4698,16.3659 81.1825,52.5564 115.2921,52.4439 37.6246,-0.1125 92.2618,-38.3276 123.7281,-57.1962 82.476,-49.4631 156.2911,-101.682 225.0727,-169.0294 29.3854,-28.7387 66.5319,-62.8483 81.4356,-102.1882 h -264.3282 c -26.461,0 -80.4514,10.3201 -103.4536,-3.3181 -13.132,-7.7893 -14.9598,-28.345 -18.6436,-41.6739 -67.1228,-330.3804 -94.3066,-37.2815 -132.0235,109.6681 -4.3867,17.0126 -6.6363,56.2962 -24.4363,64.7604 -22.1586,10.545 -32.3943,-40.071 -35.7406,-53.5124 -13.4413,-54.356 -36.3591,-107.1654 -54.0748,-160.2841 -12.7833,-41.5167 -21.8787,-65.7205 -47.0166,-19.6841 -11.7261,26.6859 -22.2711,78.3986 -44.036,97.7734 -10.0389,8.9421 -25.8704,6.2707 -38.2995,6.2707 z"
   sodipodi:nodetypes="cccccccsccccccccsc" /><path
   style="fill:#ff5555;fill-opacity:1;stroke-linecap:round;stroke-opacity:0.858824;paint-order:stroke fill markers"
   id="rect3765"
   sodipodi:type="rect"
   width="189.19891"
   height="143.2986"
   x="3935.5249"
   y="3665.498"
   ry="71.6493"
   d="m 4007.1742,3665.498 h 45.9003 c 39.6937,0 71.6493,31.9556 71.6493,71.6493 0,39.6938 -31.9556,71.6493 -71.6493,71.6493 h -45.9003 c -39.6937,0 -71.6493,-31.9555 -71.6493,-71.6493 0,-39.6937 31.9556,-71.6493 71.6493,-71.6493 z" /></g>
</g></g>

</svg>
